<svg id="Warstwa_1" data-name="Warstwa 1" xmlns="http://www.w3.org/2000/svg" viewBox="0 0 200 200">
    <title>doublesIcon</title>
    <path class="cls-1"
          d="M112.93,46.82h0c0-.67,0-1.35,0-2a1.53,1.53,0,0,0-1.23-1.54l-2.53-.61a3.91,3.91,0,0,1-2.06-1c-1.51-1.57-3-3.13-4.48-4.75a4.62,4.62,0,0,1-.9-1.66c-.32-.94-.52-1.92-.76-2.89a1.61,1.61,0,0,0-1.44-1.27,12.15,12.15,0,0,0-2,0,6.27,6.27,0,0,1-3.19-.33c-1.85-1-3.67-1.95-5.5-2.94a4.06,4.06,0,0,1-1.5-1.55c-.53-.87-1.08-1.74-1.64-2.59A1.48,1.48,0,0,0,84.23,23a7.46,7.46,0,0,0-1.8.47,5.91,5.91,0,0,1-2.6.58A37.35,37.35,0,0,1,73,22.88,5.69,5.69,0,0,1,70,20.83a12,12,0,0,0-.81-.93,1.85,1.85,0,0,0-2.83-.07c-.54.49-1,1-1.62,1.45a4.17,4.17,0,0,1-1.34.69,27.09,27.09,0,0,1-7.66.79,3.7,3.7,0,0,1-1.83-.5c-.75-.43-1.53-.82-2.31-1.18a2,2,0,0,0-.91-.15,2.07,2.07,0,0,0-1.72,1.24,8.35,8.35,0,0,1-4.28,3.75c-1.31.56-2.65,1-4,1.56a5.09,5.09,0,0,1-2.84.28,19.43,19.43,0,0,0-2.75-.29,1.46,1.46,0,0,0-1.59,1.08c-.29.82-.64,1.62-.93,2.43a5.27,5.27,0,0,1-1.29,2,35.82,35.82,0,0,1-5.49,4.33,3.25,3.25,0,0,1-2.08.52,9,9,0,0,0-1.27,0,2.14,2.14,0,0,0-2,1.32,4.23,4.23,0,0,0-.34,1.9,5.15,5.15,0,0,1-.93,3.83c-1.23,1.8-2.41,3.63-3.65,5.42a4,4,0,0,1-2,1.33,11.56,11.56,0,0,0-2.15,1.18,1.5,1.5,0,0,0-.58,1.67,13,13,0,0,0,.5,1.72,3.93,3.93,0,0,1,.21,2.46c-.23,1-.57,1.91-.77,2.88a18.5,18.5,0,0,1-1.6,4.53A6.1,6.1,0,0,1,7.6,68a9.72,9.72,0,0,0-1.4,1.59,1.45,1.45,0,0,0-.08,1.62A10.13,10.13,0,0,0,7,72.59,3.86,3.86,0,0,1,7.93,75c0,2.42.07,4.84.07,7.26a5.17,5.17,0,0,1-.91,2.93,9.58,9.58,0,0,0-.88,2,1.59,1.59,0,0,0,.4,1.66,10.15,10.15,0,0,0,1.12,1.05,5,5,0,0,1,1.69,2.21q1.08,3.08,2,6.2a6.6,6.6,0,0,1,.25,3.33c-.15.63-.27,1.26-.38,1.89a2,2,0,0,0,1.23,2.29c.55.23,1.12.41,1.69.59a3.1,3.1,0,0,1,1.53,1.11q2,2.73,4,5.45a6.44,6.44,0,0,1,1.15,2.54c.23,1.06.57,2.11.9,3.14a1.67,1.67,0,0,0,1.28,1.1,19.79,19.79,0,0,0,2,.43,5.15,5.15,0,0,1,2.56,1.18c1,.81,2,1.6,3.1,2.33a10.64,10.64,0,0,1,3.42,3.58c.39.71.74,1.45,1.08,2.18a1.78,1.78,0,0,0,1.06.92,2.54,2.54,0,0,0,1.47.06,7.66,7.66,0,0,1,4.49.28c1.71.69,3.45,1.33,5.18,2A8.05,8.05,0,0,1,50.93,135a14.84,14.84,0,0,0,1,1.06,1.64,1.64,0,0,0,1.63.4,4.22,4.22,0,0,0,.81-.37A6.65,6.65,0,0,1,58,135c1.48.09,3,.07,4.44.13a25.2,25.2,0,0,1,2.89.22,10.46,10.46,0,0,1,4.13,2,1.47,1.47,0,0,0,1.56.13A4.16,4.16,0,0,0,72.67,136a3.73,3.73,0,0,1,2-1.4c1.8-.49,3.59-1,5.39-1.45a21.69,21.69,0,0,1,2.75-.58,8.27,8.27,0,0,1,3.18.52A2.31,2.31,0,0,0,88.83,132c.31-.49.57-1,.88-1.51a3.64,3.64,0,0,1,.78-1.06c1.26-.92,2.56-1.79,3.86-2.65.63-.41,1.35-.7,1.94-1.16a7.31,7.31,0,0,1,5.21-1.34,2,2,0,0,0,2.22-1.81c.07-.59.13-1.19.18-1.78a3.2,3.2,0,0,1,.7-1.85c1.35-1.58,2.68-3.18,4.05-4.74a7.88,7.88,0,0,1,3.42-2.25c.57-.2,1.11-.45,1.65-.69a1.6,1.6,0,0,0,1-1.5,13.52,13.52,0,0,0-.13-1.91,5,5,0,0,1,.31-3.13,15.39,15.39,0,0,0,.68-1.42c.49-1.14.94-2.3,1.44-3.42a7.71,7.71,0,0,1,3-3.59,11.08,11.08,0,0,0,1.09-.82,1.89,1.89,0,0,0,.63-2.25,5.34,5.34,0,0,0-.66-1.43,5,5,0,0,1-.64-3.69c.14-1.77.48-3.52.72-5.28a5.66,5.66,0,0,1,1.27-3,11.24,11.24,0,0,0,1.07-1.49,2,2,0,0,0-.42-3,15.82,15.82,0,0,1-1.4-1.31,3,3,0,0,1-.67-1.21,49.45,49.45,0,0,1-1.21-5.93A6.88,6.88,0,0,1,120.1,63a13.43,13.43,0,0,0,.67-2.29,1.77,1.77,0,0,0-.84-2.13c-.72-.4-1.43-.81-2.16-1.2a3.35,3.35,0,0,1-1.44-1.47c-.88-1.73-1.76-3.48-2.72-5.17a5.18,5.18,0,0,1-.68-2.73C112.94,47.62,112.93,47.22,112.93,46.82Z"/>
    <path class="cls-1"
          d="M181,91.31h0c0-.67,0-1.34,0-2a1.54,1.54,0,0,0-1.24-1.54l-2.53-.61a4,4,0,0,1-2.06-1c-1.5-1.58-3-3.13-4.48-4.75a4.91,4.91,0,0,1-.9-1.67c-.32-.94-.52-1.92-.76-2.89a1.59,1.59,0,0,0-1.44-1.26,11.14,11.14,0,0,0-2,0,6.27,6.27,0,0,1-3.19-.33c-1.85-1-3.67-2-5.49-2.94a4.21,4.21,0,0,1-1.51-1.54c-.52-.88-1.08-1.74-1.64-2.6a1.48,1.48,0,0,0-1.51-.69,7.46,7.46,0,0,0-1.8.47,5.91,5.91,0,0,1-2.6.58,36.51,36.51,0,0,1-6.8-1.17,5.69,5.69,0,0,1-3.07-2,12,12,0,0,0-.81-.93,1.86,1.86,0,0,0-2.83-.07c-.54.49-1,1-1.62,1.45a4.07,4.07,0,0,1-1.34.69,26.66,26.66,0,0,1-7.66.79,3.7,3.7,0,0,1-1.83-.5c-.75-.42-1.53-.82-2.31-1.18a1.88,1.88,0,0,0-.91-.14A2.08,2.08,0,0,0,117,66.65a8.31,8.31,0,0,1-4.28,3.75c-1.3.56-2.65,1-4,1.56a5,5,0,0,1-2.84.28,19.43,19.43,0,0,0-2.75-.29A1.48,1.48,0,0,0,101.53,73c-.28.81-.63,1.61-.93,2.43a5.4,5.4,0,0,1-1.28,2,36.52,36.52,0,0,1-5.5,4.33,3.28,3.28,0,0,1-2.07.51,9.13,9.13,0,0,0-1.28,0,2.14,2.14,0,0,0-2,1.32,4.11,4.11,0,0,0-.33,1.9,5.23,5.23,0,0,1-.94,3.84C86,91.14,84.8,93,83.56,94.76a4,4,0,0,1-2,1.33,11,11,0,0,0-2.15,1.18,1.5,1.5,0,0,0-.59,1.67,14.7,14.7,0,0,0,.5,1.72,3.94,3.94,0,0,1,.22,2.46c-.24,1-.58,1.91-.78,2.89a18.43,18.43,0,0,1-1.6,4.52,6,6,0,0,1-1.55,1.91A9.61,9.61,0,0,0,74.24,114a1.45,1.45,0,0,0-.09,1.62,10.3,10.3,0,0,0,.93,1.43,3.86,3.86,0,0,1,.88,2.35c.05,2.42.08,4.84.07,7.26a5.3,5.3,0,0,1-.9,2.94,8.85,8.85,0,0,0-.89,2,1.59,1.59,0,0,0,.4,1.66,10.09,10.09,0,0,0,1.12,1,4.86,4.86,0,0,1,1.69,2.22c.72,2,1.39,4.11,2,6.19a6.63,6.63,0,0,1,.25,3.34c-.14.62-.27,1.25-.38,1.88a2,2,0,0,0,1.23,2.29c.55.23,1.12.41,1.69.6A2.94,2.94,0,0,1,83.78,152c1.32,1.81,2.65,3.63,4,5.44A6.74,6.74,0,0,1,88.92,160a31.4,31.4,0,0,0,.9,3.15,1.65,1.65,0,0,0,1.27,1.09,19.79,19.79,0,0,0,2,.43,5.29,5.29,0,0,1,2.56,1.18c1,.81,2,1.61,3.1,2.33a10.74,10.74,0,0,1,3.42,3.58c.39.71.74,1.45,1.09,2.18a1.77,1.77,0,0,0,1.06.93,2.68,2.68,0,0,0,1.46.06,7.66,7.66,0,0,1,4.49.27c1.71.69,3.45,1.33,5.18,2a7.94,7.94,0,0,1,3.51,2.35c.32.38.69.71,1.05,1.06a1.6,1.6,0,0,0,1.62.4,4.17,4.17,0,0,0,.81-.36,6.69,6.69,0,0,1,3.59-1.08c1.47.09,3,.07,4.44.13a23.29,23.29,0,0,1,2.89.23,10.15,10.15,0,0,1,4.12,2,1.49,1.49,0,0,0,1.56.12,4.16,4.16,0,0,0,1.66-1.45,3.65,3.65,0,0,1,2-1.39c1.79-.5,3.58-1,5.39-1.45a20,20,0,0,1,2.74-.59,8.09,8.09,0,0,1,3.18.53,2.33,2.33,0,0,0,2.86-1.08c.31-.49.57-1,.88-1.51a3.47,3.47,0,0,1,.78-1.05c1.26-.93,2.56-1.79,3.86-2.66.63-.41,1.35-.7,1.94-1.16a7.31,7.31,0,0,1,5.21-1.34,2,2,0,0,0,2.22-1.8c.07-.6.13-1.19.18-1.79a3.24,3.24,0,0,1,.7-1.84c1.35-1.59,2.68-3.18,4.05-4.75a7.86,7.86,0,0,1,3.43-2.25c.56-.19,1.1-.45,1.65-.69a1.58,1.58,0,0,0,1-1.5,15.19,15.19,0,0,0-.12-1.91,4.89,4.89,0,0,1,.31-3.13,15.3,15.3,0,0,0,.67-1.42c.49-1.14.94-2.29,1.44-3.42a7.77,7.77,0,0,1,3-3.59,9.7,9.7,0,0,0,1.09-.82,1.86,1.86,0,0,0,.63-2.25,5.48,5.48,0,0,0-.66-1.43,5,5,0,0,1-.64-3.69c.14-1.77.48-3.52.72-5.28a5.7,5.7,0,0,1,1.27-3,11.93,11.93,0,0,0,1.07-1.49,2,2,0,0,0-.42-3,15.82,15.82,0,0,1-1.4-1.31,3,3,0,0,1-.67-1.21,51.49,51.49,0,0,1-1.21-5.93,7,7,0,0,1,.29-3.8,13.06,13.06,0,0,0,.67-2.29,1.77,1.77,0,0,0-.84-2.13c-.71-.41-1.43-.82-2.16-1.21a3.41,3.41,0,0,1-1.44-1.47c-.88-1.73-1.75-3.47-2.71-5.17A5.08,5.08,0,0,1,181,92.5C181,92.1,181,91.71,181,91.31Z"/>
</svg>
