<svg id="Warstwa_1" data-name="Warstwa 1" xmlns="http://www.w3.org/2000/svg" viewBox="0 0 200 200">
    <title>easyIcon</title>
    <path class="cls-1"
          d="M104.21,25.2a19.78,19.78,0,0,0,5.72,2.43,67.1,67.1,0,0,0,12.44,2.11q.52,0,1,0a19.62,19.62,0,0,0,2.35-.15A17.45,17.45,0,0,0,130.94,34c3,1.64,5.72,3.11,8.52,4.55a16.76,16.76,0,0,0,5.93,1.78,18.53,18.53,0,0,0,3.1,4.89c1.93,2.14,3.89,4.18,5.79,6.15l1.22,1.27A16.16,16.16,0,0,0,161,56.32a19.62,19.62,0,0,0,2.45,7.49c1.09,1.93,2.13,4,3.22,6.1l.63,1.23a17,17,0,0,0,4,5.11,25,25,0,0,0,0,7.42A86.92,86.92,0,0,0,173.39,94a16.11,16.11,0,0,0,1.74,4.17,21.9,21.9,0,0,0-1.79,6.21c-.11.79-.23,1.58-.35,2.37-.29,1.88-.63,4-.8,6.27v.08a23.42,23.42,0,0,0,.28,6.89,25.13,25.13,0,0,0-4.38,6.77c-.53,1.19-1,2.32-1.45,3.42-.27.64-.53,1.28-.8,1.91-.14.33-.35.8-.5,1.08a17.13,17.13,0,0,0-2.07,7.3,23.34,23.34,0,0,0-5.87,4.83c-1.61,1.83-3.18,3.68-4.69,5.47l-1.52,1.8a15.89,15.89,0,0,0-2.75,4.61,21.09,21.09,0,0,0-7.73,3.68l-.27.15a24.34,24.34,0,0,0-2.13,1.25c-2,1.32-4.13,2.74-6.27,4.31a13.63,13.63,0,0,0-2.53,2.38c-.41,0-.84-.05-1.27-.05a18.18,18.18,0,0,0-2.09.12,40.14,40.14,0,0,0-5.53,1.13l-.2.05c-2.76.71-5.5,1.46-8.3,2.23a17,17,0,0,0-4.59,2,22.51,22.51,0,0,0-4.32-1.18,43.76,43.76,0,0,0-5.44-.46l-.34,0c-1.09,0-2.13-.06-3.14-.08-1.19,0-2.3,0-3.34-.1l-1.06,0a18.91,18.91,0,0,0-4.89.65,25.24,25.24,0,0,0-6.5-3.47c-2.43-.89-5-1.84-7.48-2.83a22.06,22.06,0,0,0-7.16-1.55A28.37,28.37,0,0,0,56,157.61c-1.31-.9-2.68-2-4-3a20.66,20.66,0,0,0-6.26-3.47,22.14,22.14,0,0,0-3.41-6.88q-3-4.07-6-8.14a16.54,16.54,0,0,0-3.64-3.64,24,24,0,0,0-1-6.55c-1-3.24-2-6.57-3.22-9.9a18.31,18.31,0,0,0-2.43-4.66,19.74,19.74,0,0,0,1-6.18c0-3.49,0-7.14-.12-11.16a17.07,17.07,0,0,0-.92-5.27,19.94,19.94,0,0,0,1.52-2.55A39.58,39.58,0,0,0,31,76.48c.08-.37.25-1,.43-1.58s.41-1.41.62-2.24a17.3,17.3,0,0,0,.5-4.81A15.92,15.92,0,0,0,36.29,64c1-1.52,2.05-3,3-4.49.82-1.23,1.65-2.47,2.49-3.69a20.69,20.69,0,0,0,2.92-6.3,16.46,16.46,0,0,0,3.76-1.86,64.66,64.66,0,0,0,10.05-8,19.82,19.82,0,0,0,3.29-4.26,19.56,19.56,0,0,0,6.84-1.4l2.12-.82c1.32-.5,2.69-1,4.12-1.63a26.13,26.13,0,0,0,7.15-4.46,17.22,17.22,0,0,0,4.6.67h1.23a51.1,51.1,0,0,0,13.66-1.63,17.3,17.3,0,0,0,2.67-1m.66-14.72a3.13,3.13,0,0,0-2.1.93c-.81.74-1.57,1.53-2.44,2.19a6.11,6.11,0,0,1-2,1,38.71,38.71,0,0,1-10.44,1.19H86.8a5.5,5.5,0,0,1-2.74-.75c-1.13-.64-2.3-1.23-3.48-1.77a2.78,2.78,0,0,0-1.15-.23h-.21a3.11,3.11,0,0,0-2.59,1.85,12.53,12.53,0,0,1-6.43,5.64c-2,.84-4,1.55-6,2.34a7.59,7.59,0,0,1-2.83.56A8,8,0,0,1,60,23.33a31.74,31.74,0,0,0-4.14-.43h-.16a2.22,2.22,0,0,0-2.24,1.64C53,25.76,52.48,27,52,28.18a8,8,0,0,1-1.93,3,54.65,54.65,0,0,1-8.26,6.51,4.85,4.85,0,0,1-2.73.79h-.39c-.41,0-.82-.06-1.22-.06a5.37,5.37,0,0,0-.7,0,3.21,3.21,0,0,0-3,2,6.42,6.42,0,0,0-.5,2.86,7.84,7.84,0,0,1-1.41,5.76c-1.85,2.7-3.62,5.45-5.48,8.14a6.09,6.09,0,0,1-3,2A16.15,16.15,0,0,0,20.2,61a2.27,2.27,0,0,0-.89,2.51,19.14,19.14,0,0,0,.77,2.58,6,6,0,0,1,.31,3.71c-.36,1.45-.86,2.87-1.16,4.33a27.48,27.48,0,0,1-2.41,6.81,9.14,9.14,0,0,1-2.32,2.86,15,15,0,0,0-2.11,2.39,2.18,2.18,0,0,0-.12,2.43,14.35,14.35,0,0,0,1.39,2.15A5.83,5.83,0,0,1,15,94.28q.11,5.46.11,10.92a7.86,7.86,0,0,1-1.37,4.41,14.43,14.43,0,0,0-1.33,3,2.37,2.37,0,0,0,.6,2.49,13.29,13.29,0,0,0,1.69,1.58A7.41,7.41,0,0,1,17.23,120q1.62,4.62,3,9.32a9.79,9.79,0,0,1,.37,5c-.21.94-.4,1.88-.57,2.83a3.08,3.08,0,0,0,1.86,3.44c.82.35,1.68.62,2.54.9a4.5,4.5,0,0,1,2.29,1.67l6,8.19a9.71,9.71,0,0,1,1.73,3.81,49,49,0,0,0,1.36,4.73,2.48,2.48,0,0,0,1.91,1.65c1,.24,2,.51,3,.65A7.79,7.79,0,0,1,44.59,164c1.52,1.21,3.06,2.41,4.66,3.51a15.84,15.84,0,0,1,5.14,5.38C55,174,55.5,175.07,56,176.17a2.65,2.65,0,0,0,1.6,1.39,3.56,3.56,0,0,0,1.19.21,5.15,5.15,0,0,0,1-.12,14,14,0,0,1,2.86-.31,10.43,10.43,0,0,1,3.89.73c2.58,1,5.18,2,7.79,2.94a12.06,12.06,0,0,1,5.27,3.53c.48.57,1,1.08,1.57,1.6a2.28,2.28,0,0,0,1.67.7,3,3,0,0,0,.77-.11,5.53,5.53,0,0,0,1.22-.54,10.6,10.6,0,0,1,5-1.62h.38c2.22.13,4.45.1,6.67.19a37.13,37.13,0,0,1,4.35.34,15.48,15.48,0,0,1,6.2,3,2.18,2.18,0,0,0,1.28.43,2.89,2.89,0,0,0,1.07-.24,6.38,6.38,0,0,0,2.48-2.18,5.56,5.56,0,0,1,3-2.1c2.7-.74,5.4-1.48,8.11-2.18a30.84,30.84,0,0,1,4.12-.88,5.58,5.58,0,0,1,.7,0,15.18,15.18,0,0,1,4.08.83,5,5,0,0,0,1.32.2,3.41,3.41,0,0,0,3-1.81c.46-.74.85-1.54,1.31-2.28a5.4,5.4,0,0,1,1.18-1.58c1.89-1.39,3.85-2.69,5.81-4,.94-.62,2-1.05,2.91-1.75a10.26,10.26,0,0,1,6.68-2.05c.38,0,.76,0,1.15,0h.2a3,3,0,0,0,3.14-2.72c.1-.89.19-1.78.27-2.68a4.81,4.81,0,0,1,1-2.77c2-2.39,4-4.78,6.09-7.13a12,12,0,0,1,5.15-3.39c.84-.29,1.66-.68,2.48-1a2.39,2.39,0,0,0,1.52-2.27,21.37,21.37,0,0,0-.18-2.87,7.45,7.45,0,0,1,.46-4.7,23.32,23.32,0,0,0,1-2.14c.73-1.71,1.41-3.44,2.17-5.14a11.66,11.66,0,0,1,4.49-5.4,13.75,13.75,0,0,0,1.64-1.23,2.83,2.83,0,0,0,1-3.38,8.23,8.23,0,0,0-1-2.14c-1.29-1.71-1.11-3.67-1-5.55.21-2.66.72-5.3,1.08-8a8.53,8.53,0,0,1,1.91-4.54,18.75,18.75,0,0,0,1.62-2.24c1.08-1.75.88-3.06-.64-4.45a26.4,26.4,0,0,1-2.11-2A4.75,4.75,0,0,1,185,91a77,77,0,0,1-1.81-8.92,10.33,10.33,0,0,1,.44-5.72,20.26,20.26,0,0,0,1-3.44,2.66,2.66,0,0,0-1.26-3.21c-1.08-.61-2.15-1.22-3.25-1.81a5,5,0,0,1-2.16-2.2c-1.33-2.61-2.64-5.23-4.08-7.78a7.66,7.66,0,0,1-1-4.1c0-.6,0-1.2,0-1.8h.07c0-1,0-2,0-3a2.3,2.3,0,0,0-1.86-2.31c-1.26-.32-2.53-.6-3.8-.91a6,6,0,0,1-3.09-1.46c-2.27-2.36-4.56-4.71-6.74-7.14a7.28,7.28,0,0,1-1.36-2.51c-.47-1.41-.78-2.88-1.14-4.33a2.4,2.4,0,0,0-2.17-1.91,12.37,12.37,0,0,0-1.62-.09c-.46,0-.92,0-1.38,0-.66,0-1.32.08-2,.08a6.06,6.06,0,0,1-2.83-.57c-2.77-1.43-5.52-2.93-8.26-4.42a6.12,6.12,0,0,1-2.25-2.32c-.8-1.32-1.63-2.62-2.47-3.91a2.21,2.21,0,0,0-1.9-1.06l-.38,0a11,11,0,0,0-2.7.71,9.38,9.38,0,0,1-3.57.88h-.34A55.34,55.34,0,0,1,112.86,16a8.54,8.54,0,0,1-4.62-3.07c-.39-.48-.78-1-1.21-1.41a3.11,3.11,0,0,0-2.16-1Z"/>
</svg>
