<svg id="Warstwa_1" data-name="Warstwa 1" xmlns="http://www.w3.org/2000/svg" viewBox="0 0 200 200">
    <title>unrankedIcon</title>
    <path class="cls-1"
          d="M104.35,21.74a20.22,20.22,0,0,0,6,2.57,68.78,68.78,0,0,0,12.79,2.17q.53,0,1.05,0a19.57,19.57,0,0,0,2.61-.18,17.34,17.34,0,0,0,5.37,4.57c3.1,1.7,5.9,3.22,8.79,4.71a17.12,17.12,0,0,0,6.23,1.82,18.38,18.38,0,0,0,3.23,5.15c2,2.21,4,4.32,6,6.35l1.25,1.31a16.36,16.36,0,0,0,5.75,3.84,20,20,0,0,0,2.52,7.83c1.13,2,2.2,4.09,3.33,6.32l.65,1.27a17.39,17.39,0,0,0,4.19,5.31,25.21,25.21,0,0,0,0,7.78,91.06,91.06,0,0,0,2.15,10.6,16.27,16.27,0,0,0,1.87,4.39,22.18,22.18,0,0,0-1.91,6.5c-.11.82-.24,1.64-.36,2.45-.31,1.94-.65,4.15-.83,6.46v.08a23.54,23.54,0,0,0,.33,7.21,25.58,25.58,0,0,0-4.6,7c-.55,1.21-1,2.38-1.5,3.51-.27.66-.54,1.33-.82,2-.15.34-.37.84-.54,1.15a17.28,17.28,0,0,0-2.1,7.59,24,24,0,0,0-6.16,5c-1.65,1.89-3.27,3.81-4.84,5.65l-1.57,1.86a16.1,16.1,0,0,0-2.85,4.86,21.29,21.29,0,0,0-8.07,3.8l-.31.16c-.56.31-1.32.72-2.17,1.28-2.06,1.36-4.26,2.83-6.47,4.44a14.62,14.62,0,0,0-2.67,2.55c-.48,0-1-.06-1.49-.06a18.7,18.7,0,0,0-2.12.13,40.46,40.46,0,0,0-5.65,1.15l-.21,0c-2.86.74-5.69,1.51-8.57,2.31a17.28,17.28,0,0,0-4.82,2.16,21.8,21.8,0,0,0-4.57-1.27,44.27,44.27,0,0,0-5.57-.48h-.36c-1.12,0-2.2-.07-3.24-.09-1.22,0-2.38,0-3.46-.11q-.54,0-1.08,0a19.59,19.59,0,0,0-5.14.7A26.12,26.12,0,0,0,77.6,172c-2.52-.92-5.18-1.9-7.74-2.92a22.64,22.64,0,0,0-7.48-1.59,28.71,28.71,0,0,0-8.1-8.08c-1.36-.94-2.78-2-4.11-3.1a20.76,20.76,0,0,0-6.54-3.59,22.34,22.34,0,0,0-3.52-7.18Q37,141.33,34,137.11a16.84,16.84,0,0,0-3.84-3.79,24.33,24.33,0,0,0-1.06-6.86c-1-3.34-2.11-6.78-3.32-10.21a18.5,18.5,0,0,0-2.59-4.89,19.81,19.81,0,0,0,1.07-6.46c0-3.6,0-7.37-.12-11.53a17.48,17.48,0,0,0-1-5.52,19.63,19.63,0,0,0,1.65-2.75,40.66,40.66,0,0,0,3.5-10c.08-.4.26-1,.45-1.66s.42-1.45.63-2.3a17.38,17.38,0,0,0,.5-5.08,16,16,0,0,0,4-4c1.07-1.56,2.11-3.12,3.12-4.63.85-1.28,1.7-2.56,2.57-3.83a20.56,20.56,0,0,0,3-6.59,17.2,17.2,0,0,0,4-1.94,67.45,67.45,0,0,0,10.33-8.19,20.31,20.31,0,0,0,3.45-4.51A19.81,19.81,0,0,0,67.44,31c.72-.29,1.46-.57,2.19-.85,1.36-.52,2.77-1.06,4.24-1.68a26.58,26.58,0,0,0,7.45-4.69,17.54,17.54,0,0,0,4.86.74h1.27a52.67,52.67,0,0,0,14-1.67,18.83,18.83,0,0,0,2.89-1.1M105,7a3.24,3.24,0,0,0-2.17,1c-.83.76-1.62,1.58-2.52,2.26a6.35,6.35,0,0,1-2.08,1.08,40,40,0,0,1-10.79,1.23H86.34a5.67,5.67,0,0,1-2.84-.78c-1.17-.66-2.38-1.27-3.6-1.83a2.93,2.93,0,0,0-1.18-.24h-.23a3.2,3.2,0,0,0-2.67,1.92,13,13,0,0,1-6.65,5.83c-2,.86-4.12,1.6-6.17,2.42a7.87,7.87,0,0,1-2.92.58,7.78,7.78,0,0,1-1.5-.15,30.44,30.44,0,0,0-4.27-.44h-.17a2.29,2.29,0,0,0-2.31,1.69c-.44,1.28-1,2.51-1.44,3.78a8.38,8.38,0,0,1-2,3.09,56,56,0,0,1-8.55,6.73,5,5,0,0,1-2.82.82h-.4c-.42,0-.84-.06-1.26-.06a5.85,5.85,0,0,0-.73,0,3.3,3.3,0,0,0-3.08,2,6.41,6.41,0,0,0-.52,3,8.06,8.06,0,0,1-1.46,6c-1.91,2.79-3.74,5.63-5.67,8.42a6.23,6.23,0,0,1-3.08,2.06,17.34,17.34,0,0,0-3.35,1.84,2.34,2.34,0,0,0-.91,2.6,18.9,18.9,0,0,0,.79,2.66,6.23,6.23,0,0,1,.33,3.83c-.37,1.5-.9,3-1.2,4.48a28.4,28.4,0,0,1-2.5,7,9.52,9.52,0,0,1-2.4,3,15.55,15.55,0,0,0-2.17,2.47,2.23,2.23,0,0,0-.13,2.52,15.16,15.16,0,0,0,1.43,2.21A6,6,0,0,1,12.1,93.6c.07,3.77.12,7.53.11,11.29a8.12,8.12,0,0,1-1.41,4.56,14.18,14.18,0,0,0-1.38,3.13,2.45,2.45,0,0,0,.63,2.58,14.16,14.16,0,0,0,1.74,1.63,7.61,7.61,0,0,1,2.62,3.44q1.68,4.78,3.13,9.64a10.18,10.18,0,0,1,.38,5.17c-.22,1-.41,2-.58,2.93a3.18,3.18,0,0,0,1.91,3.56c.86.36,1.74.64,2.63.93a4.6,4.6,0,0,1,2.37,1.72q3.09,4.24,6.19,8.46a10.2,10.2,0,0,1,1.79,4c.36,1.65.88,3.28,1.4,4.89a2.59,2.59,0,0,0,2,1.7,30.21,30.21,0,0,0,3.11.67,8.09,8.09,0,0,1,4,1.83c1.57,1.26,3.16,2.49,4.81,3.63a16.45,16.45,0,0,1,5.32,5.56c.61,1.1,1.15,2.24,1.69,3.38a2.74,2.74,0,0,0,1.65,1.44,3.48,3.48,0,0,0,1.22.21,4.77,4.77,0,0,0,1-.12,15,15,0,0,1,3-.32,10.73,10.73,0,0,1,4,.76c2.66,1.06,5.36,2.05,8,3a12.36,12.36,0,0,1,5.45,3.65,23.06,23.06,0,0,0,1.63,1.65,2.36,2.36,0,0,0,1.72.72,3.21,3.21,0,0,0,.8-.11,5.45,5.45,0,0,0,1.26-.56,10.91,10.91,0,0,1,5.18-1.68h.39c2.3.14,4.6.11,6.9.21a37.54,37.54,0,0,1,4.5.34,16,16,0,0,1,6.41,3.06A2.28,2.28,0,0,0,109,191a2.91,2.91,0,0,0,1.11-.25,6.48,6.48,0,0,0,2.56-2.25,5.78,5.78,0,0,1,3.09-2.17c2.79-.77,5.58-1.54,8.38-2.26a31.48,31.48,0,0,1,4.27-.9,5.81,5.81,0,0,1,.72,0,15.84,15.84,0,0,1,4.22.86,5.27,5.27,0,0,0,1.36.2,3.52,3.52,0,0,0,3.09-1.87c.48-.76.88-1.58,1.36-2.35a5.77,5.77,0,0,1,1.21-1.64c2-1.43,4-2.78,6-4.12,1-.64,2.1-1.09,3-1.81a10.66,10.66,0,0,1,6.91-2.11l1.19,0h.21a3.12,3.12,0,0,0,3.24-2.81c.11-.93.21-1.85.29-2.78a4.88,4.88,0,0,1,1.08-2.86c2.09-2.47,4.17-5,6.3-7.38A12.26,12.26,0,0,1,174,151c.87-.31,1.71-.71,2.56-1.07a2.47,2.47,0,0,0,1.58-2.34,21.07,21.07,0,0,0-.2-3c-.19-1.66-.37-3.3.49-4.86.39-.71.73-1.46,1.05-2.21.76-1.77,1.45-3.56,2.24-5.32a12,12,0,0,1,4.64-5.58,14.73,14.73,0,0,0,1.7-1.27,2.93,2.93,0,0,0,1-3.5,8.61,8.61,0,0,0-1-2.21c-1.32-1.76-1.14-3.79-1-5.74.22-2.75.74-5.47,1.12-8.21a8.85,8.85,0,0,1,2-4.7,19,19,0,0,0,1.66-2.31c1.13-1.81.91-3.16-.65-4.6a26.55,26.55,0,0,1-2.19-2,4.82,4.82,0,0,1-1-1.88A78,78,0,0,1,186,81a10.82,10.82,0,0,1,.45-5.91,20.77,20.77,0,0,0,1-3.56,2.74,2.74,0,0,0-1.3-3.31c-1.12-.63-2.23-1.27-3.36-1.88A5.12,5.12,0,0,1,180.57,64c-1.38-2.69-2.74-5.4-4.23-8a8,8,0,0,1-1.06-4.24c0-.62,0-1.24,0-1.86h.07c0-1,0-2.08,0-3.12a2.38,2.38,0,0,0-1.92-2.39c-1.31-.33-2.63-.62-3.93-1a6.14,6.14,0,0,1-3.2-1.5c-2.35-2.44-4.71-4.87-7-7.38a7.48,7.48,0,0,1-1.4-2.59c-.49-1.46-.81-3-1.18-4.49a2.49,2.49,0,0,0-2.24-2,13.41,13.41,0,0,0-1.68-.09c-.48,0-1,0-1.43,0-.68,0-1.36.08-2,.08a6.2,6.2,0,0,1-2.92-.59c-2.87-1.48-5.7-3-8.53-4.57a6.28,6.28,0,0,1-2.34-2.4c-.82-1.36-1.68-2.7-2.55-4a2.29,2.29,0,0,0-2-1.1l-.39,0a11.59,11.59,0,0,0-2.79.73,9.64,9.64,0,0,1-3.7.91h-.34a56.61,56.61,0,0,1-10.57-1.82A8.83,8.83,0,0,1,108.5,9.5c-.41-.49-.81-1-1.26-1.45A3.19,3.19,0,0,0,105,7Z"/>
    <path class="cls-1"
          d="M112.54,91.2h0v-.5a.39.39,0,0,0-.31-.38l-.62-.15a.9.9,0,0,1-.51-.24c-.37-.38-.75-.77-1.11-1.17a1.16,1.16,0,0,1-.22-.41,5.68,5.68,0,0,1-.18-.71.39.39,0,0,0-.36-.31,2.68,2.68,0,0,0-.49,0,1.62,1.62,0,0,1-.79-.08l-1.36-.73a1,1,0,0,1-.37-.38c-.13-.22-.26-.43-.4-.64a.37.37,0,0,0-.37-.17,1.76,1.76,0,0,0-.45.12,1.57,1.57,0,0,1-.64.14,8.82,8.82,0,0,1-1.68-.29,1.43,1.43,0,0,1-.75-.5c-.07-.08-.13-.16-.2-.23a.45.45,0,0,0-.7,0c-.13.12-.26.25-.4.36a1.29,1.29,0,0,1-.33.17,6.68,6.68,0,0,1-1.89.19.89.89,0,0,1-.45-.12c-.19-.11-.38-.2-.57-.29a.59.59,0,0,0-.23,0,.5.5,0,0,0-.42.31,2.07,2.07,0,0,1-1.06.92c-.32.14-.65.26-1,.39a1.18,1.18,0,0,1-.7.06,5.08,5.08,0,0,0-.67-.07.38.38,0,0,0-.4.27c-.07.2-.15.4-.23.6a1.32,1.32,0,0,1-.31.49A9.28,9.28,0,0,1,91,88.85a.83.83,0,0,1-.51.13,1.71,1.71,0,0,0-.32,0,.55.55,0,0,0-.49.33,1.11,1.11,0,0,0-.08.47,1.25,1.25,0,0,1-.23.94c-.3.45-.59.9-.9,1.34a1,1,0,0,1-.49.33,2.73,2.73,0,0,0-.53.29.36.36,0,0,0-.14.41,2.9,2.9,0,0,0,.12.42,1,1,0,0,1,0,.61c-.06.24-.14.47-.19.71a4.8,4.8,0,0,1-.39,1.12,1.61,1.61,0,0,1-.39.47,2.12,2.12,0,0,0-.34.39.36.36,0,0,0,0,.4,2.64,2.64,0,0,0,.23.35,1,1,0,0,1,.21.59c0,.59,0,1.19,0,1.79a1.25,1.25,0,0,1-.22.72,2.24,2.24,0,0,0-.22.5.4.4,0,0,0,.1.41,1.67,1.67,0,0,0,.28.25,1.23,1.23,0,0,1,.41.55c.18.51.35,1,.5,1.53a1.63,1.63,0,0,1,.06.82,3.89,3.89,0,0,0-.09.47.48.48,0,0,0,.3.56c.14.06.28.1.42.15a.72.72,0,0,1,.37.27l1,1.35a1.58,1.58,0,0,1,.28.62c.06.27.14.52.22.78a.42.42,0,0,0,.32.27,3.86,3.86,0,0,0,.49.1,1.37,1.37,0,0,1,.63.3c.25.2.5.39.77.57a2.71,2.71,0,0,1,.84.88c.1.18.18.36.27.54a.4.4,0,0,0,.26.23.63.63,0,0,0,.36,0,2,2,0,0,1,1.11.07l1.28.49a2,2,0,0,1,.86.57,3.31,3.31,0,0,0,.26.27.39.39,0,0,0,.4.09.7.7,0,0,0,.2-.08A1.63,1.63,0,0,1,99,113l1.1,0a5.51,5.51,0,0,1,.71.06,2.53,2.53,0,0,1,1,.48.37.37,0,0,0,.39,0,1,1,0,0,0,.4-.35,1,1,0,0,1,.49-.35l1.33-.35a5.52,5.52,0,0,1,.68-.15,2.15,2.15,0,0,1,.79.13.57.57,0,0,0,.7-.26c.08-.13.14-.26.22-.38a.83.83,0,0,1,.19-.26l1-.65a3.82,3.82,0,0,0,.48-.29,1.84,1.84,0,0,1,1.29-.33.49.49,0,0,0,.54-.44c0-.15,0-.3,0-.44a.76.76,0,0,1,.17-.46l1-1.17a2.07,2.07,0,0,1,.84-.56c.14,0,.28-.11.41-.16a.4.4,0,0,0,.25-.38,2.53,2.53,0,0,0,0-.47,1.21,1.21,0,0,1,.08-.77c.06-.11.11-.23.17-.35.12-.28.23-.57.35-.84a1.84,1.84,0,0,1,.74-.89l.27-.2a.48.48,0,0,0,.15-.56,1.39,1.39,0,0,0-.16-.35,1.27,1.27,0,0,1-.16-.91c0-.43.12-.87.18-1.3a1.47,1.47,0,0,1,.31-.75,3.07,3.07,0,0,0,.27-.36.52.52,0,0,0-.11-.74,3.4,3.4,0,0,1-.34-.32.69.69,0,0,1-.17-.3,14,14,0,0,1-.3-1.46,1.68,1.68,0,0,1,.08-.94,3.58,3.58,0,0,0,.16-.56.44.44,0,0,0-.21-.53l-.53-.3a.76.76,0,0,1-.35-.36c-.22-.43-.44-.86-.68-1.27a1.26,1.26,0,0,1-.16-.68Z"/>
</svg>
