<svg id="Warstwa_1" data-name="Warstwa 1" xmlns="http://www.w3.org/2000/svg" viewBox="0 0 200 200">
    <title>singlesIcon</title>
    <path class="cls-1"
          d="M173.85,52.5h.07c0-1,0-2,0-3a2.3,2.3,0,0,0-1.86-2.31c-1.26-.32-2.53-.6-3.8-.92a6,6,0,0,1-3.09-1.45c-2.27-2.36-4.56-4.71-6.74-7.14a7.28,7.28,0,0,1-1.36-2.51c-.47-1.41-.78-2.88-1.14-4.34a2.4,2.4,0,0,0-2.17-1.9,17.67,17.67,0,0,0-3-.06c-1.63.07-3.29.28-4.8-.5-2.77-1.42-5.52-2.92-8.26-4.42a6.09,6.09,0,0,1-2.25-2.31c-.8-1.32-1.63-2.62-2.47-3.91a2.22,2.22,0,0,0-2.28-1,11,11,0,0,0-2.7.71,8.89,8.89,0,0,1-3.91.87,55.34,55.34,0,0,1-10.22-1.77,8.54,8.54,0,0,1-4.62-3.07c-.39-.48-.78-1-1.21-1.41a2.81,2.81,0,0,0-4.26-.1c-.81.74-1.57,1.53-2.44,2.19a6.11,6.11,0,0,1-2,1A41,41,0,0,1,87.8,16.32a5.5,5.5,0,0,1-2.74-.75c-1.13-.64-2.3-1.23-3.48-1.77a2.9,2.9,0,0,0-1.36-.23,3.12,3.12,0,0,0-2.59,1.86,12.57,12.57,0,0,1-6.43,5.64c-2,.84-4,1.55-6,2.34a7.5,7.5,0,0,1-4.27.42,30.1,30.1,0,0,0-4.14-.43A2.23,2.23,0,0,0,54.42,25c-.42,1.23-.94,2.43-1.39,3.65a8,8,0,0,1-1.93,3,54,54,0,0,1-8.26,6.5,4.89,4.89,0,0,1-3.12.78,12.32,12.32,0,0,0-1.92,0,3.23,3.23,0,0,0-3,2,6.37,6.37,0,0,0-.5,2.86,7.84,7.84,0,0,1-1.41,5.76c-1.85,2.7-3.62,5.45-5.48,8.14a6.09,6.09,0,0,1-3,2,16.62,16.62,0,0,0-3.23,1.77A2.28,2.28,0,0,0,20.31,64a19.58,19.58,0,0,0,.77,2.58,6,6,0,0,1,.31,3.7c-.36,1.46-.86,2.87-1.16,4.34a27.27,27.27,0,0,1-2.41,6.8,9.07,9.07,0,0,1-2.32,2.87,14.62,14.62,0,0,0-2.11,2.39,2.17,2.17,0,0,0-.12,2.43,14.35,14.35,0,0,0,1.39,2.15A5.83,5.83,0,0,1,16,94.78q.1,5.46.11,10.92a7.86,7.86,0,0,1-1.37,4.41,14.35,14.35,0,0,0-1.33,3,2.38,2.38,0,0,0,.6,2.5,14.9,14.9,0,0,0,1.69,1.58,7.41,7.41,0,0,1,2.54,3.33q1.62,4.62,3,9.32a9.78,9.78,0,0,1,.37,5c-.21.93-.4,1.88-.57,2.83a3.08,3.08,0,0,0,1.86,3.44c.82.35,1.68.62,2.54.9a4.5,4.5,0,0,1,2.29,1.67q3,4.09,6,8.18a9.82,9.82,0,0,1,1.73,3.82,49,49,0,0,0,1.36,4.73,2.5,2.5,0,0,0,1.91,1.65,28.8,28.8,0,0,0,3,.64,7.89,7.89,0,0,1,3.85,1.78c1.52,1.21,3.06,2.41,4.66,3.5a16,16,0,0,1,5.14,5.39c.59,1.06,1.11,2.17,1.63,3.27a2.65,2.65,0,0,0,1.6,1.39,3.92,3.92,0,0,0,2.2.09,11.46,11.46,0,0,1,6.75.42c2.58,1,5.18,2,7.79,2.94A12,12,0,0,1,80.63,185c.48.57,1,1.08,1.57,1.6a2.43,2.43,0,0,0,2.44.59,5.53,5.53,0,0,0,1.22-.54,10,10,0,0,1,5.4-1.61c2.22.12,4.45.1,6.67.19a35.09,35.09,0,0,1,4.35.34,15.48,15.48,0,0,1,6.2,3,2.27,2.27,0,0,0,2.35.19,6.38,6.38,0,0,0,2.48-2.18,5.56,5.56,0,0,1,3-2.1c2.7-.74,5.4-1.48,8.11-2.18a30.84,30.84,0,0,1,4.12-.88,12.45,12.45,0,0,1,4.78.79,3.5,3.5,0,0,0,4.31-1.61c.46-.74.85-1.54,1.31-2.28a5.4,5.4,0,0,1,1.18-1.58c1.89-1.39,3.85-2.7,5.81-4,.94-.62,2-1.05,2.91-1.75,2.33-1.85,5-2.16,7.83-2a3,3,0,0,0,3.34-2.71c.1-.89.19-1.79.27-2.68a4.78,4.78,0,0,1,1-2.77c2-2.39,4-4.79,6.09-7.14a11.93,11.93,0,0,1,5.15-3.38c.84-.29,1.66-.68,2.48-1a2.39,2.39,0,0,0,1.52-2.27,21.27,21.27,0,0,0-.18-2.87,7.45,7.45,0,0,1,.46-4.7,23.32,23.32,0,0,0,1-2.14c.73-1.71,1.41-3.44,2.17-5.14a11.66,11.66,0,0,1,4.49-5.4,14.92,14.92,0,0,0,1.64-1.23,2.83,2.83,0,0,0,1-3.38,8.45,8.45,0,0,0-1-2.15c-1.29-1.7-1.11-3.66-1-5.54.21-2.66.72-5.3,1.08-8a8.49,8.49,0,0,1,1.91-4.54,18.75,18.75,0,0,0,1.62-2.24c1.08-1.75.88-3.06-.64-4.46a23.19,23.19,0,0,1-2.11-2,4.61,4.61,0,0,1-1-1.82,76.42,76.42,0,0,1-1.81-8.91,10.33,10.33,0,0,1,.44-5.72,20.1,20.1,0,0,0,1-3.45,2.65,2.65,0,0,0-1.26-3.2c-1.08-.61-2.15-1.22-3.25-1.81A5,5,0,0,1,179,66.17c-1.33-2.6-2.64-5.23-4.08-7.77a7.66,7.66,0,0,1-1-4.1C173.86,53.7,173.85,53.1,173.85,52.5Z"/>
</svg>
