<svg id="Warstwa_1" data-name="Warstwa 1" xmlns="http://www.w3.org/2000/svg" xmlns:xlink="http://www.w3.org/1999/xlink" viewBox="0 0 1200 400"><defs><style>.cls-1,.cls-7{opacity:0.17;}.cls-1{fill:url(#Gradient_bez_nazwy_63);}.cls-2,.cls-6,.cls-8{opacity:0.1;}.cls-2{fill:url(#Gradient_bez_nazwy_88);}.cls-3{opacity:0.08;fill:url(#Gradient_bez_nazwy_57);}.cls-4{opacity:0.06;fill:url(#Gradient_bez_nazwy_88-2);}.cls-10,.cls-5,.cls-9{opacity:0.11;}.cls-5{fill:url(#Gradient_bez_nazwy_87);}.cls-6{fill:url(#Gradient_bez_nazwy_88-3);}.cls-7{fill:url(#Gradient_bez_nazwy_63-2);}.cls-8{fill:url(#Gradient_bez_nazwy_88-4);}.cls-9{fill:url(#Gradient_bez_nazwy_87-2);}.cls-10{fill:url(#Gradient_bez_nazwy_87-3);}</style><radialGradient id="Gradient_bez_nazwy_63" cx="477.46" cy="65.74" r="582.43" gradientUnits="userSpaceOnUse"><stop offset="0.03" stop-color="#fff"/><stop offset="0.09" stop-color="#f4f4f4" stop-opacity="0.89"/><stop offset="0.24" stop-color="#dedede" stop-opacity="0.66"/><stop offset="0.38" stop-color="#cacaca" stop-opacity="0.46"/><stop offset="0.52" stop-color="#bababa" stop-opacity="0.29"/><stop offset="0.65" stop-color="#aeaeae" stop-opacity="0.16"/><stop offset="0.78" stop-color="#a5a5a5" stop-opacity="0.07"/><stop offset="0.9" stop-color="#a0a0a0" stop-opacity="0.02"/><stop offset="1" stop-color="#9e9e9e" stop-opacity="0"/></radialGradient><radialGradient id="Gradient_bez_nazwy_88" cx="325.78" cy="79.86" r="233.34" gradientUnits="userSpaceOnUse"><stop offset="0.03" stop-color="#fff"/><stop offset="0.13" stop-color="#fdfdfd" stop-opacity="0.98"/><stop offset="0.25" stop-color="#f8f8f8" stop-opacity="0.92"/><stop offset="0.38" stop-color="#eee" stop-opacity="0.83"/><stop offset="0.52" stop-color="#e2e2e2" stop-opacity="0.7"/><stop offset="0.66" stop-color="#d1d1d1" stop-opacity="0.53"/><stop offset="0.81" stop-color="#bdbdbd" stop-opacity="0.32"/><stop offset="0.96" stop-color="#a6a6a6" stop-opacity="0.08"/><stop offset="1" stop-color="#9e9e9e" stop-opacity="0"/></radialGradient><radialGradient id="Gradient_bez_nazwy_57" cx="1218.99" cy="368.01" r="120.79" gradientUnits="userSpaceOnUse"><stop offset="0.03" stop-color="#fff"/><stop offset="0.11" stop-color="#fdfdfd" stop-opacity="0.98"/><stop offset="0.19" stop-color="#f8f8f8" stop-opacity="0.92"/><stop offset="0.29" stop-color="#eee" stop-opacity="0.83"/><stop offset="0.39" stop-color="#e2e2e2" stop-opacity="0.7"/><stop offset="0.49" stop-color="#d1d1d1" stop-opacity="0.53"/><stop offset="0.6" stop-color="#bdbdbd" stop-opacity="0.32"/><stop offset="0.71" stop-color="#a6a6a6" stop-opacity="0.08"/><stop offset="0.74" stop-color="#9e9e9e" stop-opacity="0"/></radialGradient><radialGradient id="Gradient_bez_nazwy_88-2" cx="618.73" cy="-11.49" r="120.79" xlink:href="#Gradient_bez_nazwy_88"/><radialGradient id="Gradient_bez_nazwy_87" cx="728.56" cy="530.52" r="135.87" gradientTransform="translate(806.71 -491.76) rotate(77.3)" gradientUnits="userSpaceOnUse"><stop offset="0" stop-color="#fff"/><stop offset="1"/></radialGradient><radialGradient id="Gradient_bez_nazwy_88-3" cx="92.2" cy="63.51" r="233.34" xlink:href="#Gradient_bez_nazwy_88"/><radialGradient id="Gradient_bez_nazwy_63-2" cx="1347.32" cy="93.43" r="791.19" xlink:href="#Gradient_bez_nazwy_63"/><radialGradient id="Gradient_bez_nazwy_88-4" cx="1141.28" cy="112.6" r="316.98" xlink:href="#Gradient_bez_nazwy_88"/><radialGradient id="Gradient_bez_nazwy_87-2" cx="474.53" cy="198.97" r="135.87" gradientTransform="translate(524.74 583.3) rotate(-101.28)" xlink:href="#Gradient_bez_nazwy_87"/><radialGradient id="Gradient_bez_nazwy_87-3" cx="367.36" cy="736.39" r="135.87" gradientTransform="translate(384.75 360.47) rotate(-84.93)" xlink:href="#Gradient_bez_nazwy_87"/></defs><title>horizontalShine</title><rect width="1214" height="400"/><polygon class="cls-1" points="89.65 571.9 20.2 571.9 274.46 -11.49 343.92 -11.49 89.65 571.9"/><polygon class="cls-2" points="132.36 314.55 93.03 314.55 235.13 -11.49 274.46 -11.49 132.36 314.55"/><rect class="cls-3" x="1084.24" y="263.02" width="269.51" height="209.98"/><rect class="cls-4" x="483.98" y="-116.48" width="269.51" height="209.98"/><polygon class="cls-5" points="358.54 524.29 432.11 470.2 437.12 338.76 351.7 382.2 358.54 524.29"/><polygon class="cls-6" points="-101.23 298.2 -140.56 298.2 1.55 -27.84 40.88 -27.84 -101.23 298.2"/><polygon class="cls-7" points="820.52 781 726.16 781 1071.57 -11.49 1165.92 -11.49 820.52 781"/><polygon class="cls-8" points="878.53 431.41 825.11 431.41 1018.14 -11.49 1071.57 -11.49 878.53 431.41"/><polygon class="cls-9" points="722.58 -107.31 647.68 -55.07 639.41 76.2 725.88 34.9 722.58 -107.31"/><polygon class="cls-10" points="1294.79 -92.37 1208.21 -63.31 1163.33 60.33 1257.94 45.03 1294.79 -92.37"/></svg>