<svg id="Warstwa_1" data-name="Warstwa 1" xmlns="http://www.w3.org/2000/svg" viewBox="-50 -50 100 100">
    <defs>
        <style>.cls-1{fill:#fff;}</style>
    </defs>
    <title>loading</title>

    <g>
        <g transform="translate(-50,-50)">

            <path class="cls-1"
                  d="M88.69,24h0c0-.54,0-1.09,0-1.63a1.24,1.24,0,0,0-1-1.25l-2.06-.49A3.25,3.25,0,0,1,84,19.84c-1.23-1.28-2.46-2.55-3.65-3.86a4.05,4.05,0,0,1-.73-1.36c-.26-.76-.42-1.56-.61-2.34a1.31,1.31,0,0,0-1.18-1,9.72,9.72,0,0,0-1.62,0A5.05,5.05,0,0,1,73.62,11c-1.5-.77-3-1.58-4.47-2.39a3.33,3.33,0,0,1-1.22-1.25c-.42-.71-.88-1.41-1.33-2.11a1.21,1.21,0,0,0-1.23-.56A6,6,0,0,0,63.91,5a4.61,4.61,0,0,1-2.11.47,29.62,29.62,0,0,1-5.53-1,4.63,4.63,0,0,1-2.49-1.66c-.21-.26-.43-.52-.66-.76a1.52,1.52,0,0,0-2.3-.06c-.44.4-.85.83-1.32,1.18a3.25,3.25,0,0,1-1.09.57,22.42,22.42,0,0,1-6.22.64A2.94,2.94,0,0,1,40.71,4c-.62-.35-1.25-.66-1.89-1A1.52,1.52,0,0,0,38.09,3a1.69,1.69,0,0,0-1.4,1A6.7,6.7,0,0,1,33.21,7c-1.06.46-2.15.84-3.22,1.27a4.05,4.05,0,0,1-2.31.23,16.85,16.85,0,0,0-2.24-.24,1.2,1.2,0,0,0-1.29.88c-.23.67-.51,1.32-.76,2a4.29,4.29,0,0,1-1,1.62,29.57,29.57,0,0,1-4.46,3.51,2.65,2.65,0,0,1-1.69.42,7.23,7.23,0,0,0-1,0,1.74,1.74,0,0,0-1.61,1.08,3.23,3.23,0,0,0-.27,1.54,4.26,4.26,0,0,1-.77,3.12c-1,1.45-1.95,2.94-3,4.4a3.3,3.3,0,0,1-1.61,1.08,8.52,8.52,0,0,0-1.75,1,1.22,1.22,0,0,0-.48,1.36,11.09,11.09,0,0,0,.41,1.39,3.28,3.28,0,0,1,.18,2c-.2.79-.47,1.55-.63,2.34a14.8,14.8,0,0,1-1.31,3.68,4.81,4.81,0,0,1-1.25,1.55A7.8,7.8,0,0,0,2,42.46a1.2,1.2,0,0,0-.07,1.32,8.83,8.83,0,0,0,.75,1.16,3.1,3.1,0,0,1,.72,1.91c0,2,.06,3.94.06,5.9a4.24,4.24,0,0,1-.74,2.39A7.69,7.69,0,0,0,2,56.77a1.31,1.31,0,0,0,.33,1.35,6.64,6.64,0,0,0,.91.85,4,4,0,0,1,1.37,1.81q.88,2.49,1.64,5a5.3,5.3,0,0,1,.2,2.71c-.12.51-.22,1-.31,1.53a1.67,1.67,0,0,0,1,1.86c.45.19.91.33,1.37.49a2.3,2.3,0,0,1,1.24.9L13,77.72a5.41,5.41,0,0,1,.94,2.07c.19.86.46,1.71.73,2.55a1.37,1.37,0,0,0,1,.89,15.08,15.08,0,0,0,1.62.35,4.24,4.24,0,0,1,2.08,1c.82.66,1.65,1.3,2.52,1.89a8.6,8.6,0,0,1,2.78,2.91c.32.58.6,1.18.88,1.77a1.45,1.45,0,0,0,.86.75,2,2,0,0,0,1.19,0,6.24,6.24,0,0,1,3.65.23c1.4.55,2.8,1.07,4.21,1.59a6.46,6.46,0,0,1,2.85,1.91,11.5,11.5,0,0,0,.85.86,1.3,1.3,0,0,0,1.32.32,3.23,3.23,0,0,0,.66-.29,5.34,5.34,0,0,1,2.91-.87c1.2.07,2.41,0,3.61.1a20.31,20.31,0,0,1,2.35.18,8.45,8.45,0,0,1,3.35,1.6,1.22,1.22,0,0,0,1.27.11A3.58,3.58,0,0,0,56,96.47a3,3,0,0,1,1.61-1.14c1.46-.4,2.92-.8,4.38-1.17a17.39,17.39,0,0,1,2.23-.48,6.78,6.78,0,0,1,2.59.43,1.89,1.89,0,0,0,2.32-.87c.25-.4.46-.83.71-1.24a2.88,2.88,0,0,1,.64-.85c1-.75,2.08-1.46,3.14-2.16.51-.33,1.09-.57,1.57-.94A5.93,5.93,0,0,1,79.4,87a1.64,1.64,0,0,0,1.81-1.47L81.36,84a2.66,2.66,0,0,1,.56-1.5c1.1-1.28,2.18-2.58,3.3-3.85A6.39,6.39,0,0,1,88,76.86c.45-.16.89-.37,1.34-.56a1.29,1.29,0,0,0,.82-1.22,11.42,11.42,0,0,0-.1-1.55A4.1,4.1,0,0,1,90.31,71a11.12,11.12,0,0,0,.55-1.16c.4-.93.76-1.86,1.17-2.78a6.36,6.36,0,0,1,2.43-2.92,8.19,8.19,0,0,0,.89-.66,1.53,1.53,0,0,0,.51-1.83,4.25,4.25,0,0,0-.54-1.16,4.13,4.13,0,0,1-.52-3c.12-1.44.39-2.86.59-4.29a4.61,4.61,0,0,1,1-2.46,9.52,9.52,0,0,0,.87-1.21A1.65,1.65,0,0,0,97,47.11a12.76,12.76,0,0,1-1.14-1.06,2.72,2.72,0,0,1-.55-1,43.78,43.78,0,0,1-1-4.82,5.64,5.64,0,0,1,.24-3.1,10.48,10.48,0,0,0,.54-1.86,1.43,1.43,0,0,0-.68-1.73c-.58-.33-1.16-.66-1.75-1a2.64,2.64,0,0,1-1.17-1.19c-.72-1.41-1.43-2.83-2.21-4.2A4.27,4.27,0,0,1,88.69,25C88.7,24.65,88.69,24.32,88.69,24Z">
            </path>

        </g>

        <animateTransform attributeName="transform"
                          type="scale"
                          additive="sum"
                          from="-1 1"
                          to="1 1"
                          begin="0s"
                          dur="1s"
                          repeatCount="indefinite"/>

        <animateTransform attributeName="transform"
                          type="scale"
                          additive="sum"
                          from="1 1"
                          to="-1 1"
                          begin="1s"
                          dur="1s"
                          repeatCount="indefinite"/>
    </g>
</svg>
