<svg xmlns="http://www.w3.org/2000/svg" xmlns:xlink="http://www.w3.org/1999/xlink" viewBox="0 0 1366 768"><defs><style>.cls-1{isolation:isolate;}.cls-2{fill:#130000;}.cls-2,.cls-3,.cls-4{mix-blend-mode:color-dodge;}.cls-3{fill:url(#Gradient_bez_nazwy_124);}.cls-5{fill:url(#Gradient_bez_nazwy_8);}</style><radialGradient id="Gradient_bez_nazwy_124" cx="1350" cy="674" r="571" gradientUnits="userSpaceOnUse"><stop offset="0.67"/><stop offset="1" stop-color="#f5f5f5"/></radialGradient><radialGradient id="Gradient_bez_nazwy_8" cx="1349.32" cy="660.97" r="512" gradientUnits="userSpaceOnUse"><stop offset="0"/><stop offset="0.92" stop-color="#fff"/></radialGradient></defs><title>Obszar roboczy 1</title><g class="cls-1"><g id="Warstwa_1" data-name="Warstwa 1"><circle class="cls-2" cx="1350" cy="674" r="571"/><circle class="cls-3" cx="1350" cy="674" r="571"/><g class="cls-4"><path class="cls-5" d="M1765,387.38c0,3.45.07,6.9,0,10.35a44.38,44.38,0,0,0,5.93,23.63c8.31,14.67,15.86,29.78,23.54,44.8a29,29,0,0,0,12.45,12.71c6.3,3.37,12.5,6.92,18.71,10.44,7.37,4.18,9,10.83,7.25,18.45-1.54,6.71-3.07,13.55-5.76,19.83-4.67,10.85-4.06,21.63-2.52,33A442.89,442.89,0,0,0,1835,611.92a27.27,27.27,0,0,0,5.79,10.48c3.61,4.17,8.07,7.6,12.16,11.35,8.74,8,9.93,15.56,3.66,25.66a102.64,102.64,0,0,1-9.29,12.9c-6.52,7.6-9.67,16.45-11,26.18-2.11,15.26-5,30.44-6.24,45.77-.86,10.82-1.87,22.13,5.53,32,2.68,3.55,4.21,8.07,5.77,12.33,2.79,7.64.79,14.41-5.46,19.51a90.27,90.27,0,0,1-9.48,7.09c-12.16,7.46-20.16,18.36-25.86,31.09-4.38,9.77-8.26,19.77-12.47,29.61-1.79,4.19-3.68,8.36-5.87,12.34-4.78,8.69-3.78,17.83-2.69,27.08a120.78,120.78,0,0,1,1.07,16.54,13.73,13.73,0,0,1-8.77,13c-4.74,2-9.43,4.27-14.3,5.95a68.39,68.39,0,0,0-29.64,19.5c-11.87,13.54-23.42,27.36-35.09,41.08-3.9,4.59-5.51,10.08-6,16-.46,5.16-1,10.31-1.59,15.45-1.16,10-9.19,16.16-19.24,15.63-16.19-.85-31.68,1-45.12,11.61-5.07,4-11.32,6.49-16.76,10.08-11.29,7.46-22.55,15-33.48,23-2.92,2.13-4.75,5.9-6.76,9.12-2.67,4.28-4.88,8.85-7.57,13.12-5.91,9.36-14,12.29-24.79,9.28-9-2.53-18.1-5.64-27.55-4.54-8,.94-15.92,3-23.77,5.06-15.6,4-31.15,8.29-46.69,12.57-7.13,2-12.67,6.18-17.21,12.1-3.89,5.06-8.14,9.92-14.32,12.53-4.77,2-9,2.06-13.53-1.08-11-7.59-22.29-14.87-35.74-17.06-8.23-1.33-16.67-1.58-25-1.92-12.82-.53-25.66-.4-38.46-1.13-11.61-.67-21.33,4.07-31.05,9.28a33,33,0,0,1-7,3.14c-5.18,1.33-10.06.51-14-3.41-3.08-3-6.31-5.93-9.07-9.23-8.15-9.77-18.55-16-30.35-20.31-15-5.5-30-11-44.9-17-12.78-5.1-25.74-5.11-38.87-2.41a22.54,22.54,0,0,1-12.69-.52,15.29,15.29,0,0,1-9.18-8c-3-6.35-6-12.71-9.42-18.85-7.15-12.89-17.49-22.73-29.61-31-9.24-6.31-18.1-13.21-26.86-20.18-6.61-5.27-13.63-9.07-22.15-10.24a173.1,173.1,0,0,1-17.33-3.73c-5.24-1.26-9.36-4.33-11-9.47a279.71,279.71,0,0,1-7.8-27.24,56.89,56.89,0,0,0-10-22q-17.32-23.54-34.54-47.16A25.8,25.8,0,0,0,910,903.21c-4.91-1.61-9.86-3.18-14.62-5.16a17.74,17.74,0,0,1-10.68-19.85c1-5.46,2-10.9,3.26-16.31,2.24-9.85.63-19.54-2.12-28.85q-8-27.06-17.43-53.69c-2.72-7.72-8-14.05-14.62-19.2a82.56,82.56,0,0,1-9.72-9.08c-3.74-4.05-5.36-9.08-3.48-14.38,2.13-6,4.26-12.2,7.7-17.45a45.28,45.28,0,0,0,7.86-25.38q0-31.46-.65-62.9a33.46,33.46,0,0,0-7.65-20.41,85.44,85.44,0,0,1-8-12.36c-2.51-4.66-2.45-9.75.75-14,3.66-4.89,7.51-9.81,12.1-13.77,5.54-4.76,10.16-10,13.39-16.5A159.45,159.45,0,0,0,880,514.68c1.71-8.42,4.62-16.59,6.69-24.95,1.81-7.27.9-14.35-1.84-21.37a109.92,109.92,0,0,1-4.38-14.84c-1.37-5.79.26-11.19,5.08-14.49a96.47,96.47,0,0,1,18.63-10.22c6.71-2.65,13.11-5.57,17.21-11.52,10.72-15.5,20.92-31.36,31.58-46.91,6.94-10.11,9.88-20.75,8.12-33.17-.75-5.28,1-11.27,2.91-16.47,2.77-7.64,9.53-10.68,17.19-11.45a69.53,69.53,0,0,1,11.08.12,28.34,28.34,0,0,0,18-4.49c16.88-11.21,33.13-23.21,47.6-37.5a46,46,0,0,0,11.1-17.25c2.59-7,5.6-13.95,8-21,2.32-6.75,7.18-9.72,13.81-9.4a175.52,175.52,0,0,1,23.81,2.5,43.16,43.16,0,0,0,24.61-2.43c11.44-4.55,23.07-8.66,34.39-13.49,15.83-6.75,28.83-17,37.07-32.49,3.25-6.1,7.88-10.16,14.88-10.68a16.6,16.6,0,0,1,7.84,1.28c6.82,3.13,13.55,6.51,20.07,10.22a31.87,31.87,0,0,0,15.81,4.32c22.39.28,44.65-.79,66.35-6.82a35.67,35.67,0,0,0,11.6-6c5-3.79,9.39-8.36,14-12.6,8-7.32,16.84-7.17,24.52.59,2.51,2.53,4.76,5.34,7,8.11,7,8.66,15.6,14.92,26.6,17.7,19.38,4.88,38.9,9,58.88,10.16,7.87.46,15.24-2,22.52-5a65.14,65.14,0,0,1,15.58-4.07,12.8,12.8,0,0,1,13.1,5.95c4.85,7.43,9.65,14.89,14.22,22.49,3.31,5.52,7.37,10.28,13,13.36,15.79,8.62,31.59,17.23,47.57,25.46,8.69,4.47,18.25,3.24,27.62,2.87a103.3,103.3,0,0,1,17.33.33c6.27.81,10.86,4.37,12.5,11,2.07,8.36,3.82,16.84,6.57,25,1.73,5.13,4.21,10.47,7.78,14.44,12.61,14,25.8,27.52,38.85,41.14,4.82,5,11.33,6.78,17.83,8.38,7.29,1.79,14.62,3.42,21.9,5.28,6.72,1.71,10.48,6.36,10.69,13.29.18,5.79,0,11.6,0,17.4Z"/></g></g></g></svg>