<svg id="Warstwa_1" data-name="Warstwa 1" xmlns="http://www.w3.org/2000/svg" viewBox="0 0 100 50">
    <defs>
        <style>.cls-1{fill:#fff;stroke:#fff;stroke-miterlimit:10;stroke-width:1.73px;}</style>
    </defs>
    <title>Obszar roboczy 1</title>
    <path class="cls-1"
          d="M29.46,29.66c0,2.12-.34,3.56-1,4.32s-2,1.14-3.87,1.14H11c-1.89,0-3.17-.38-3.86-1.14s-1-2.2-1-4.32V17.47c0-2.12.34-3.57,1-4.33S9.15,12,11,12H24.56c2,0,3.32.4,4,1.21s.95,2.33.95,4.57L26,18.54v-3.4H9.63V31.9H26V25.13H17.52v-3H29.46Z"/>
    <path class="cls-1"
          d="M63.59,29.66c0,2.12-.33,3.56-1,4.32s-1.94,1.14-3.86,1.14H47q-2.84,0-3.87-1.14c-.68-.76-1-2.2-1-4.32V17.47c0-2.12.35-3.57,1-4.33S45.14,12,47,12h11.7c2.37,0,3.85.67,4.41,2,.3.71.45,2.6.45,5.64l-3.49.72V15.14H45.61V31.9H60.1V26.12l3.49.8Z"/>
    <path class="cls-1" d="M95,35.12H75.69V12h3.48V31.9H95Z"/>
</svg>
